<svg id="Layer_1" height="200" viewBox="0 0 512 512" width="200" xmlns="http://www.w3.org/2000/svg" data-name="Layer 1"><path d="m328 248v-58.177l-48 .001v58.176l24 8z" fill="#f9d375"/><path d="m280 209.521c16.542 1.185 36.96-7.632 48-13.2v-6.5h-48z" fill="#e0991b"/><path d="m168 480v-202a54 54 0 0 1 54-54h58l24 32 24-32h31.291c44.574 0 80.709 27.426 80.709 72v32h-48v152z" fill="#f2c033"/><path d="m368 448v32h-264v-160h264v80" fill="#bc820f"/><path d="m88 400h16a0 0 0 0 1 0 0v56a0 0 0 0 1 0 0h-16a16 16 0 0 1 -16-16v-24a16 16 0 0 1 16-16z" fill="#f9d375"/><path d="m208 280h16v40h-16z" fill="#bc820f"/><path d="m232 320h16v160h-16z" fill="#9b670b"/><path d="m304 256-40-8v-24h16z" fill="#5915af"/><path d="m304 256 40-8v-24h-16z" fill="#5915af"/><g fill="#9b670b"><path d="m104 360h168v16h-168z"/><path d="m104 416h136v16h-136z"/><path d="m288 336h24v16h-24z"/><path d="m320 336h24v16h-24z"/></g><path d="m392 328v72h-56l-16-24h-24l16 24h-28.238a19.762 19.762 0 0 0 -19.762 19.762v8.476a19.762 19.762 0 0 0 19.762 19.762h124.238a32 32 0 0 0 32-32v-88z" fill="#f9d375"/><g opacity=".2"><path d="m384 280h16v48h-16z" fill="#fff"/></g><g opacity=".2"><path d="m192 320v-48c8-48 72-40 72-40v-8h-42a54 54 0 0 0 -54 54v42z" fill="#fff"/></g><g opacity=".2"><path d="m104 320h264v16h-264z" fill="#fff"/></g><g opacity=".2"><path d="m392 400h-56l-16-24h-24l16 24h-28.238a19.761 19.761 0 0 0 -19.394 16h129.677a21.955 21.955 0 0 0 21.955-21.955v-66.045l-24 1.2z" fill="#fff"/></g><path d="m248 80v66a46 46 0 0 0 46 46h20a46 46 0 0 0 46-46v-66z" fill="#f9d375"/><path d="m272 104h16v16h-16z" fill="#5915af"/><path d="m320 104h16v16h-16z" fill="#5915af"/><path d="m248 56a24 24 0 0 1 24-24h64a24 24 0 0 1 24 24v24h-112" fill="#f2c033"/><path d="m360 80s-48-24-88-24c0 0-40 0-56 24z" fill="#bc820f"/><path d="m304 168a24.027 24.027 0 0 1 -24-24h16a8 8 0 0 0 16 0h16a24.027 24.027 0 0 1 -24 24z" fill="#8225e5"/><path d="m280 56c0-8 8-8 8-8h70.629a24.006 24.006 0 0 0 -22.629-16h-64a24 24 0 0 0 -24 24v3.525c-11.524 3.156-24.44 9.136-32 20.475h32c8-16 32-24 32-24z" fill="#fff" opacity=".2"/></svg>