<svg id="Icons" height="512" viewBox="0 0 74 74" width="512" xmlns="http://www.w3.org/2000/svg"><path d="m68 56.01h-13a1 1 0 0 1 0-2h13a2 2 0 0 0 2-2v-25a2 2 0 0 0 -2-2h-62a2 2 0 0 0 -2 2v25a2 2 0 0 0 2 2h13a1 1 0 0 1 0 2h-13a4 4 0 0 1 -4-4v-25a4 4 0 0 1 4-4h62a4 4 0 0 1 4 4v25a4 4 0 0 1 -4 4z"/><path d="m71 35.01h-68a1 1 0 0 1 0-2h68a1 1 0 0 1 0 2z"/><path d="m64.688 30.406h-1.188a1 1 0 0 1 0-2h1.188a1 1 0 0 1 0 2z"/><path d="m58.594 30.406h-1.188a1 1 0 0 1 0-2h1.188a1 1 0 0 1 0 2z"/><path d="m52.5 30.406h-1.188a1 1 0 0 1 0-2h1.188a1 1 0 0 1 0 2z"/><path d="m55 25.01h-36a1 1 0 0 1 -1-1v-21.02a1 1 0 0 1 1-1h36a1 1 0 0 1 1 1v21.02a1 1 0 0 1 -1 1zm-35-2h34v-19.02h-34z"/><path d="m61.688 25.01h-6.688a1 1 0 0 1 -1-1v-10a1 1 0 0 1 1-1h3.88a3.813 3.813 0 0 1 3.808 3.808v7.192a1 1 0 0 1 -1 1zm-5.688-2h4.688v-6.192a1.81 1.81 0 0 0 -1.808-1.808h-2.88z"/><path d="m19 25.01h-6.688a1 1 0 0 1 -1-1v-7.192a3.813 3.813 0 0 1 3.808-3.808h3.88a1 1 0 0 1 1 1v10a1 1 0 0 1 -1 1zm-5.688-2h4.688v-8h-2.88a1.81 1.81 0 0 0 -1.808 1.808z"/><path d="m55 72.016h-36a1 1 0 0 1 -1-1v-24.006a1 1 0 0 1 1-1h36a1 1 0 0 1 1 1v24.006a1 1 0 0 1 -1 1zm-35-2h34v-22.006h-34z"/><path d="m59.172 48.01h-44.344a1 1 0 1 1 0-2h44.344a1 1 0 0 1 0 2z"/><path d="m48 54.156h-22a1 1 0 0 1 0-2h22a1 1 0 0 1 0 2z"/><path d="m48 60.013h-22a1 1 0 0 1 0-2h22a1 1 0 0 1 0 2z"/><path d="m48 65.87h-22a1 1 0 0 1 0-2h22a1 1 0 0 1 0 2z"/></svg>